<?xml version="1.0" encoding="UTF-8"?>
<svg version="1.1" xmlns="http://www.w3.org/2000/svg" width="1024" height="1024">
<path d="M0 0 C337.92 0 675.84 0 1024 0 C1024 337.92 1024 675.84 1024 1024 C686.08 1024 348.16 1024 0 1024 C0 686.08 0 348.16 0 0 Z " fill="#FEF7ED" transform="translate(0,0)"/>
<path d="M0 0 C1.2816806 -0.0127597 2.56336121 -0.02551941 3.88388062 -0.03866577 C5.28017017 -0.0417235 6.67646176 -0.04395122 8.07275391 -0.04541016 C9.50998059 -0.05184029 10.94720597 -0.05856882 12.38442993 -0.06558228 C15.39547763 -0.07754786 18.40641067 -0.08126387 21.41748047 -0.08007812 C25.26660295 -0.07987501 29.11498647 -0.10717152 32.96393394 -0.14162254 C35.93231551 -0.16391446 38.9005199 -0.16791498 41.86897659 -0.16685867 C43.28749767 -0.16921141 44.70602386 -0.17801655 46.12446213 -0.19352341 C48.11282515 -0.21322517 50.10140581 -0.20481213 52.08984375 -0.1953125 C53.21917328 -0.19816254 54.34850281 -0.20101257 55.51205444 -0.20394897 C60.22184981 0.53251192 63.44913054 2.72530571 66.37207031 6.45947266 C68.18334343 10.39714101 69.34501105 14.41879141 70.51025391 18.58740234 C70.78139511 19.53451584 71.05253632 20.48162933 71.33189392 21.45744324 C71.9274196 23.54125625 72.51956421 25.62603772 73.10879517 27.7116394 C74.0723484 31.12204696 75.04453242 34.52989424 76.01879883 37.93725586 C77.27126526 42.32013898 78.52167864 46.70359329 79.76884747 51.08798695 C83.70567459 64.92766727 87.67782102 78.75720574 91.65280151 92.58596802 C92.54260867 95.6816921 93.43167382 98.77762778 94.32009888 101.87374878 C99.1565776 118.72678684 104.03008905 135.56757457 109.01806641 152.37646484 C109.23089956 153.09424417 109.44373272 153.81202351 109.66301537 154.55155373 C111.68963544 161.38589822 113.72019827 168.21900038 115.76838112 175.04691696 C116.67432584 178.07102566 117.5739795 181.09700877 118.47509766 184.12255859 C118.96562622 185.74519119 118.96562622 185.74519119 119.46606445 187.40060425 C119.7594873 188.38884186 120.05291016 189.37707947 120.35522461 190.39526367 C120.61165237 191.24985672 120.86808014 192.10444977 121.13227844 192.98493958 C121.67431641 195.29052734 121.67431641 195.29052734 121.67431641 199.29052734 C122.33431641 199.29052734 122.99431641 199.29052734 123.67431641 199.29052734 C123.7693042 198.10773193 123.86429199 196.92493652 123.9621582 195.70629883 C124.72613595 188.88966821 126.44648589 182.29090657 128.06884766 175.63818359 C128.41599838 174.19691473 128.76265092 172.7555258 129.10884094 171.31402588 C130.03604538 167.45906878 130.96988472 163.60574813 131.90506744 159.75271988 C132.88453579 155.71244989 133.85805519 151.67074723 134.83203125 147.62915039 C136.00835572 142.74956183 137.18532486 137.87013238 138.36523438 132.9914093 C140.57355117 123.86038034 142.76995814 114.72670446 144.94384766 105.58740234 C147.55430157 94.61704674 150.18843238 83.65264453 152.8482666 72.69415283 C153.43211273 70.28849455 154.01530087 67.88267653 154.59802246 65.47674561 C156.43892711 57.87815893 158.29033059 50.28226798 160.16127968 42.6910181 C160.9965776 39.301532 161.82822856 35.91126554 162.64996338 32.51846313 C163.56136763 28.7568502 164.49196279 25.00013061 165.42431641 21.24365234 C165.69363983 20.12111557 165.96296326 18.9985788 166.240448 17.84202576 C169.37701415 5.36291382 169.37701415 5.36291382 175.26657104 1.66127014 C179.48134204 -0.03409332 182.87760957 -0.12498101 187.37011719 -0.08178711 C188.22288239 -0.08543777 189.07564758 -0.08908844 189.95425415 -0.09284973 C192.75958463 -0.10092444 195.56433199 -0.08737304 198.36962891 -0.07275391 C200.32445271 -0.07223503 202.27927705 -0.07275381 204.23410034 -0.07426453 C208.32444073 -0.07417495 212.41458344 -0.06377284 216.50488281 -0.0456543 C221.74845202 -0.02293766 226.9917333 -0.02243002 232.23533821 -0.02917194 C236.26905885 -0.0325122 240.30271379 -0.02588125 244.33642197 -0.01604271 C246.27012666 -0.01219366 248.20383866 -0.01104127 250.13754654 -0.01262856 C252.83760786 -0.01299921 255.53729897 -0.00037975 258.23730469 0.01586914 C259.43589111 0.01215302 259.43589111 0.01215302 260.65869141 0.00836182 C267.60428333 0.0751053 267.60428333 0.0751053 270.67431641 2.29052734 C273.60397066 8.14983585 270.83692266 15.31595509 269.18212891 21.20849609 C268.92087723 22.16575089 268.65962555 23.12300568 268.39045715 24.10926819 C267.53521273 27.2345839 266.66739016 30.35625315 265.79931641 33.47802734 C265.19904236 35.66174167 264.59952163 37.84566321 264.00073242 40.02978516 C262.23677195 46.45324201 260.45686666 52.87220911 258.67431641 59.29052734 C258.20623943 60.97945318 257.73829204 62.66841493 257.27050781 64.35742188 C255.64922367 70.20935353 254.02529213 76.06053365 252.39306641 81.90942383 C249.56149715 92.05994889 246.78046012 102.22349192 244.01849365 112.39315796 C238.4137099 133.02497438 232.71236005 153.62947196 226.98681641 174.22802734 C226.7728484 174.99782803 226.55888039 175.76762871 226.3384285 176.56075668 C219.79927401 200.08508118 213.24346302 223.6047612 206.68536377 247.12380981 C201.89617285 264.30032726 197.11859909 281.48000514 192.36181641 298.66552734 C192.0962796 299.62403595 191.8307428 300.58254456 191.55715942 301.57009888 C190.80766453 304.27617055 190.05925453 306.98254026 189.31103516 309.68896484 C189.08043396 310.52053604 188.84983276 311.35210724 188.61224365 312.20887756 C187.55036617 316.05171945 186.51020495 319.89756189 185.5246582 323.76074219 C185.34655106 324.4530191 185.16844391 325.14529602 184.98493958 325.85855103 C184.5168401 327.68941477 184.05782289 329.52259412 183.59960938 331.35595703 C182.32786745 335.38929157 180.84659817 337.52494837 177.67431641 340.29052734 C174.01110785 341.51159686 170.62519756 341.45395712 166.80981445 341.4675293 C166.00946777 341.47410049 165.20912109 341.48067169 164.38452148 341.48744202 C161.73502508 341.50715796 159.08558529 341.51883346 156.43603516 341.52880859 C155.53057261 341.53288412 154.62511005 341.53695965 153.69220924 341.54115868 C148.90019586 341.56201158 144.10821104 341.57631699 139.31616211 341.58569336 C134.36965079 341.59675961 129.4235891 341.63116416 124.47723675 341.67086506 C120.670773 341.69702223 116.86441658 341.70538436 113.05787086 341.70897484 C111.23463719 341.71384268 109.41140836 341.72546231 107.58826256 341.74401283 C105.03414732 341.76838678 102.48119813 341.76744279 99.92700195 341.76049805 C98.80226219 341.77971313 98.80226219 341.77971313 97.65480042 341.79931641 C92.52152088 341.74856146 89.59637976 340.57463402 85.67431641 337.29052734 C81.5770439 331.92134315 79.97906946 324.47131405 78.04931641 318.10693359 C77.7100412 317.00833511 77.37076599 315.90973663 77.02120972 314.77784729 C75.89896999 311.13823773 74.78665965 307.49567248 73.67431641 303.85302734 C72.88033443 301.26844001 72.08420148 298.68451675 71.28808594 296.10058594 C69.6056351 290.6363828 67.92792149 285.1707451 66.25341797 279.70410156 C63.71219597 271.40864677 61.15921384 263.11683861 58.60400391 254.82568359 C55.24948038 243.93897057 51.89926914 233.05094248 48.55322266 222.16162109 C45.33673556 211.69397143 42.11528461 201.22786699 38.88916016 190.76318359 C37.77527677 187.14867757 36.66146459 183.53414961 35.54766846 179.9196167 C34.8463203 177.64432078 34.14462541 175.36913171 33.44256592 173.09405518 C32.48371766 169.9866583 31.52614057 166.87887241 30.56884766 163.77099609 C30.2875853 162.86076187 30.00632294 161.95052765 29.71653748 161.01271057 C29.46001907 160.17908493 29.20350067 159.34545929 28.93920898 158.48657227 C28.60666862 157.40831429 28.60666862 157.40831429 28.26741028 156.30827332 C27.68105278 154.31344495 27.16377228 152.31110524 26.67431641 150.29052734 C19.42721342 172.57154495 12.38179091 194.91181144 5.4131813 217.28129578 C3.21790823 224.32634241 1.01907767 231.37028029 -1.17955208 238.41427994 C-1.72910572 240.17495301 -2.27860923 241.93564174 -2.82806206 243.69634628 C-6.37751695 255.06967881 -9.93843263 266.43929795 -13.52099609 277.80224609 C-13.9116777 279.04152359 -14.30235931 280.28080109 -14.70487976 281.55763245 C-16.47519435 287.1706298 -18.24789745 292.78286343 -20.02319336 298.39428711 C-20.3380217 299.39150284 -20.65285004 300.38871857 -20.97721863 301.41615295 C-21.58060391 303.32649218 -22.18568772 305.23629598 -22.79267883 307.14549255 C-24.2461254 311.74273687 -25.63795556 316.34731477 -26.93359375 320.99169922 C-27.19324417 321.9075177 -27.45289459 322.82333618 -27.72041321 323.76690674 C-28.20317643 325.48229348 -28.67268005 327.2014958 -29.12565613 328.92498779 C-30.54763778 333.95066959 -32.16412763 336.87357469 -36.32568359 340.29052734 C-39.4390909 341.847231 -42.74941871 341.46445454 -46.16845703 341.48339844 C-46.97841125 341.49157593 -47.78836548 341.49975342 -48.62286377 341.50817871 C-51.31025449 341.53304314 -53.99759232 341.54955233 -56.68505859 341.56396484 C-57.60247078 341.56928852 -58.51988297 341.5746122 -59.46509552 341.5800972 C-64.3219367 341.60683472 -69.17875213 341.62620674 -74.03564453 341.640625 C-79.05066521 341.65726463 -84.06502768 341.70203479 -89.07979965 341.75299644 C-92.93687691 341.78666755 -96.793798 341.79820233 -100.65100861 341.80385208 C-102.49938226 341.8105661 -104.34774559 341.82579213 -106.19597626 341.84974289 C-108.78630517 341.88139202 -111.37486022 341.8814319 -113.96533203 341.87402344 C-114.72608032 341.89042877 -115.48682861 341.90683411 -116.27062988 341.92373657 C-120.19396771 341.87790863 -122.74121309 341.34401317 -125.76667786 338.9186554 C-128.45711174 336.15554914 -129.40156013 334.48549274 -130.41552734 330.81005859 C-130.72087402 329.74271484 -131.0262207 328.67537109 -131.34082031 327.57568359 C-131.6452002 326.42970703 -131.94958008 325.28373047 -132.26318359 324.10302734 C-132.6010791 322.89904297 -132.93897461 321.69505859 -133.28710938 320.45458984 C-134.32321901 316.73915408 -135.32844825 313.01656577 -136.32568359 309.29052734 C-136.89711999 307.17980201 -137.46872552 305.06912246 -138.04052734 302.95849609 C-138.88564914 299.82524007 -139.727156 296.69111894 -140.56225586 293.55517578 C-142.85404519 284.9623828 -145.25211251 276.40221006 -147.70068359 267.85302734 C-147.90012573 267.15625885 -148.09956787 266.45949036 -148.30505371 265.74160767 C-150.97747009 256.41243788 -153.67210868 247.08971607 -156.37130737 237.76826477 C-157.67159556 233.27672417 -158.97032716 228.78473465 -160.26863289 224.29262066 C-161.5372648 219.9042718 -162.81066387 215.51732314 -164.08496094 211.13061523 C-167.9222006 197.88341967 -171.60332124 184.60676202 -175.12460327 171.27218628 C-179.50971708 154.72573597 -184.18173771 138.25899165 -188.82149124 121.78253555 C-190.10252905 117.23124131 -191.38092155 112.67920429 -192.65942383 108.12719727 C-194.65725265 101.01475235 -196.65582284 93.90251652 -198.65527344 86.79052734 C-208.78394127 50.76135689 -208.78394127 50.76135689 -213.32568359 34.29052734 C-213.67421387 33.02966309 -214.02274414 31.76879883 -214.38183594 30.46972656 C-215.2909805 27.16288753 -216.18704342 23.85292625 -217.07568359 20.54052734 C-217.31681885 19.66372314 -217.5579541 18.78691895 -217.80639648 17.88354492 C-219.02239703 13.2608539 -219.73775308 9.11416425 -219.32568359 4.29052734 C-218.66568359 3.30052734 -218.00568359 2.31052734 -217.32568359 1.29052734 C-214.30835684 0.97790464 -211.49452754 0.8604478 -208.47314453 0.87060547 C-207.09727928 0.85790115 -207.09727928 0.85790115 -205.69361877 0.84494019 C-202.64895916 0.82146413 -199.60480204 0.82055083 -196.56005859 0.82177734 C-194.44736527 0.81468019 -192.33467389 0.80698186 -190.22198486 0.79870605 C-185.78660736 0.78523545 -181.3514079 0.78370317 -176.91601562 0.78955078 C-171.23508046 0.79543745 -165.55500269 0.76490974 -159.87423325 0.7244339 C-155.50756232 0.69856233 -151.14109766 0.69567924 -146.77436066 0.69932556 C-144.68040061 0.6976326 -142.58643122 0.68797325 -140.49254608 0.67018127 C-137.55971848 0.64801167 -134.62862316 0.65768495 -131.69580078 0.67529297 C-130.83219437 0.66202972 -129.96858795 0.64876648 -129.07881165 0.63510132 C-124.92839682 0.69291298 -122.16465641 0.98226322 -118.84690857 3.60183716 C-115.47636323 7.1962614 -115.47636323 7.1962614 -114.6159668 9.92480469 C-114.39486237 10.61564148 -114.17375793 11.30647827 -113.94595337 12.01824951 C-112.7573003 16.3727258 -111.68216409 20.7406213 -110.68115234 25.14208984 C-110.43517303 26.20413635 -110.18919373 27.26618286 -109.9357605 28.3604126 C-109.1228413 31.87756468 -108.31797865 35.39650819 -107.51318359 38.91552734 C-106.93663879 41.41707507 -106.35972702 43.91853824 -105.7824707 46.41992188 C-102.76541412 59.51902889 -99.79235402 72.62775982 -96.84912109 85.74365234 C-96.56369446 87.01516144 -96.27826782 88.28667053 -95.98419189 89.59671021 C-93.6119254 100.16635268 -93.6119254 100.16635268 -92.52392578 105.02508545 C-89.25049989 119.62933484 -85.89957432 134.20850506 -82.36474609 148.75146484 C-82.12064027 149.75662203 -82.12064027 149.75662203 -81.87160301 150.78208542 C-80.15670768 157.83946198 -78.42694657 164.89299653 -76.67944336 171.94238281 C-76.11750773 174.23030469 -75.55557712 176.5182278 -74.99365234 178.80615234 C-74.73705841 179.82623383 -74.48046448 180.84631531 -74.21609497 181.89730835 C-72.71781678 188.020631 -71.76629759 194.00065356 -71.32568359 200.29052734 C-70.66568359 200.29052734 -70.00568359 200.29052734 -69.32568359 200.29052734 C-69.23206543 199.74757019 -69.13844727 199.20461304 -69.04199219 198.64520264 C-67.54584151 190.56833962 -65.25513241 182.74231172 -62.95068359 174.86865234 C-62.50923426 173.34892655 -62.06815796 171.82909236 -61.62742615 170.30915833 C-60.44411254 166.2320561 -59.25576137 162.15643818 -58.06647873 158.08107376 C-56.81915571 153.80339716 -55.57666697 149.52431696 -54.33374023 145.24536133 C-52.30755494 138.27192977 -50.27882747 131.2992431 -48.24804688 124.32714844 C-45.20950277 113.89478085 -42.17863911 103.46019305 -39.15093994 93.02467346 C-38.76794989 91.70467978 -38.38495434 90.3846877 -38.00195312 89.06469727 C-37.81534119 88.42152715 -37.62872925 87.77835703 -37.4364624 87.11569691 C-36.14541601 82.66712498 -34.85112881 78.21950385 -33.55566406 73.7722168 C-30.14842291 62.06872287 -26.76952803 50.35867304 -23.46240234 38.62646484 C-22.57137971 35.48165726 -21.6795227 32.33708757 -20.78738403 29.19259644 C-19.97686343 26.32078686 -19.17921386 23.44561669 -18.38208008 20.57006836 C-17.89778624 18.86081807 -17.41288126 17.15174077 -16.92724609 15.44287109 C-16.6175312 14.30082718 -16.6175312 14.30082718 -16.30155945 13.13571167 C-14.85292698 8.10943252 -13.10893522 4.07756815 -8.59057617 1.1764679 C-5.63495258 0.02033942 -3.17368671 0.02145436 0 0 Z " fill="#0367AC" transform="translate(486.32568359375,182.70947265625)"/>
<path d="M0 0 C12.5169685 10.53101571 18.48253388 22.86431661 20.49221802 38.93643188 C20.80889944 43.08952999 21.02461746 47.23339974 21.19140625 51.39453125 C21.26560378 52.95558935 21.34062317 54.51660857 21.41639709 56.07759094 C22.35950808 76.36062831 22.67989396 96.67310124 23.02905273 116.97338867 C23.10372211 121.27512415 23.19207488 125.57640357 23.2888813 129.87769508 C23.32238724 131.48619432 23.35075992 133.09481016 23.37354851 134.70349693 C23.558896 148.37438559 23.558896 148.37438559 28.8125 160.875 C34.7283981 166.62187244 41.17309206 167.1497784 49.01024151 167.12863445 C50.23634676 167.13126401 50.23634676 167.13126401 51.48722181 167.13394669 C54.24383251 167.13862236 57.00039083 167.13613715 59.75700378 167.13371277 C61.74632079 167.13557996 63.73563742 167.13788029 65.72495347 167.14057809 C71.20550487 167.14671401 76.68604105 167.14656039 82.1665951 167.14538372 C88.07200331 167.14518016 93.97740658 167.15069421 99.8828125 167.15544128 C111.45847626 167.16375848 123.03413533 167.16650956 134.60980179 167.16705366 C144.01752578 167.16751297 153.42524812 167.16957011 162.83297157 167.17275429 C165.53972715 167.17365182 168.24648273 167.17454163 170.95323831 167.17542917 C171.62612715 167.17565021 172.29901598 167.17587126 172.99229539 167.17609901 C191.92431538 167.1822548 210.85633479 167.18619942 229.78835583 167.18575573 C230.5023863 167.18574015 231.21641678 167.18572457 231.95208454 167.18570852 C235.57118287 167.18562541 239.19028121 167.18552637 242.80937954 167.18542381 C243.88754913 167.1853939 243.88754913 167.1853939 244.98749991 167.18536337 C246.44104907 167.18532294 247.89459822 167.18528114 249.34814737 167.18523798 C271.95907408 167.18462533 294.56998579 167.19212921 317.1809082 167.20581055 C342.57826295 167.22117151 367.97560785 167.22977674 393.37296754 167.22884732 C396.08129489 167.22877269 398.78962225 167.22872399 401.4979496 167.22869301 C402.16481847 167.22868135 402.83168735 167.2286697 403.51876437 167.22865769 C413.58620128 167.22862882 423.65362639 167.2339482 433.7210598 167.24202538 C445.17289723 167.25112035 456.62471008 167.25331393 468.07654955 167.24651595 C473.92060349 167.24324552 479.76461026 167.2432129 485.60865974 167.2518692 C490.95857267 167.25971212 496.30840084 167.25832536 501.65831164 167.24958507 C503.59373682 167.2480452 505.52916824 167.24988453 507.46458604 167.25544515 C510.09667738 167.26250647 512.72847147 167.25721058 515.36055279 167.24888897 C516.11066512 167.25385715 516.86077746 167.25882533 517.63362047 167.26394406 C525.8016351 167.20940794 532.94055987 165.97113351 539.33984375 160.69140625 C546.42897075 153.46883686 545.1411519 140.80151784 545.24609375 131.37109375 C545.27768163 129.28580377 545.30951197 127.20051745 545.34155273 125.11523438 C545.3646199 123.482677 545.3646199 123.482677 545.38815308 121.81713867 C545.65903767 103.26497791 546.08612827 84.72109322 546.8130188 66.18093872 C546.89520285 64.08084311 546.97474433 61.98064221 547.05148315 59.88034058 C548.45202145 21.99427692 548.45202145 21.99427692 562 7 C562.49886719 6.38640625 562.99773438 5.7728125 563.51171875 5.140625 C571.63161343 -4.10419212 585.57688289 -9.36005996 597.58837891 -10.17578125 C616.9824144 -11.09013214 635.09557521 -9.9277962 650.1875 3.5 C659.18226169 12.95181259 662.33463147 24.46656395 662.21484375 37.1640625 C661.3946314 51.80858126 656.61586768 62.91861177 646 73 C641.82641569 76.2256208 637.4282435 79.07759274 633 81.9375 C628.56206157 86.51412401 628.63629423 94.29641836 628.26977539 100.41162109 C628.21578079 101.21339279 628.16178619 102.01516449 628.1061554 102.8412323 C627.92980052 105.48489917 627.76374817 108.12910769 627.59765625 110.7734375 C627.4738513 112.65683338 627.34936073 114.54018431 627.22422791 116.42349243 C626.89516869 121.40133372 626.57464545 126.37968745 626.25616455 131.35821533 C625.94149535 136.25993445 625.62019556 141.16121619 625.29882812 146.0625 C625.2358573 147.02366352 625.17288647 147.98482704 625.10800743 148.97511673 C624.91717705 151.88706487 624.72617385 154.79900164 624.53515625 157.7109375 C624.47211933 158.6728878 624.40908241 159.6348381 624.34413528 160.62593842 C623.89889542 167.4174791 623.45094788 174.2088359 623 181 C622.90266697 182.46681969 622.90266697 182.46681969 622.80336761 183.96327209 C622.41722015 189.766585 622.02399724 195.56935417 621.62170219 201.37157059 C621.49843855 203.16047881 621.37702873 204.94951595 621.25767708 206.73868942 C619.02829361 240.07427498 619.02829361 240.07427498 609.046875 249.39453125 C602.44798586 254.5703775 596.21069679 256.33875087 588 257 C588.02094727 258.03930664 588.04189453 259.07861328 588.06347656 260.14941406 C588.13595674 264.01076442 588.18182831 267.87205483 588.21972656 271.73388672 C588.23982393 273.40423702 588.26710683 275.07451713 588.30175781 276.74462891 C588.35036119 279.1476372 588.37298656 281.54971434 588.390625 283.953125 C588.41127014 284.69806213 588.43191528 285.44299927 588.45318604 286.21051025 C588.45461184 289.51601024 588.22072807 291.650511 586.44018555 294.46972656 C583.17268501 296.51882044 580.30896267 296.5754557 576.56640625 296.53125 C575.85145493 296.5350769 575.1365036 296.53890381 574.39988708 296.54284668 C572.89117013 296.54556259 571.38240583 296.53822364 569.8737793 296.52148438 C567.57297905 296.50009741 565.27531187 296.52127608 562.97460938 296.546875 C561.50520148 296.54423105 560.03579553 296.53910466 558.56640625 296.53125 C557.88292618 296.53934692 557.19944611 296.54744385 556.49525452 296.55578613 C551.74251841 296.46322221 549.34725088 295.34064421 546 292 C543.37596643 287.42910281 543.08261392 281.89825231 542.375 276.75 C542.2409375 275.84636719 542.106875 274.94273437 541.96875 274.01171875 C541.84242188 273.11582031 541.71609375 272.21992187 541.5859375 271.296875 C541.4729834 270.49604492 541.3600293 269.69521484 541.24365234 268.87011719 C540.90888979 264.92676195 541 260.9575392 541 257 C371.71 257 202.42 257 28 257 C27.67 261.62 27.34 266.24 27 271 C26.59351563 274.21514446 26.16266426 277.37369333 25.625 280.5625 C25.5115625 281.31595703 25.398125 282.06941406 25.28125 282.84570312 C24.57311767 287.12839709 23.74599234 290.50569221 21 294 C15.89285226 297.43625344 9.16592532 296.37190596 3.24609375 296.37060547 C1.00704299 296.37498622 -1.23004674 296.41134965 -3.46875 296.44921875 C-4.89582662 296.45508614 -6.32291256 296.45905605 -7.75 296.4609375 C-9.04421875 296.46915527 -10.3384375 296.47737305 -11.671875 296.48583984 C-15 296 -15 296 -17.42871094 294.47412109 C-19.62062976 291.0227685 -19.50020696 287.907163 -19.390625 283.953125 C-19.38496521 283.18192322 -19.37930542 282.41072144 -19.37347412 281.6161499 C-19.35113589 279.16012721 -19.30094763 276.70557945 -19.25 274.25 C-19.22993154 272.58205237 -19.21168137 270.91408179 -19.1953125 269.24609375 C-19.15127992 265.16349677 -19.08227283 261.08199819 -19 257 C-19.65516602 256.9582666 -20.31033203 256.9165332 -20.98535156 256.87353516 C-29.88232399 256.17165925 -37.18466919 253.3965859 -43.4375 246.75 C-54.24815492 232.35656319 -52.47545015 210.25245456 -53.4375 193.0546875 C-53.56383729 190.86960811 -53.69072041 188.68456022 -53.81811523 186.49954224 C-54.15031526 180.78445587 -54.47711853 175.06907623 -54.80212402 169.35357666 C-55.32098211 160.23226915 -55.84508069 151.11127405 -56.37503052 141.9906044 C-56.55626832 138.85016821 -56.73329043 135.7095158 -56.90991211 132.56881714 C-57.48253143 122.54220168 -58.14283051 112.52559986 -58.96484375 102.51611328 C-59.07440147 101.10839566 -59.07440147 101.10839566 -59.18617249 99.6722393 C-59.72814385 90.13902999 -59.72814385 90.13902999 -63.84765625 81.93359375 C-64.94400391 81.19302734 -64.94400391 81.19302734 -66.0625 80.4375 C-66.86558594 79.86644531 -67.66867188 79.29539062 -68.49609375 78.70703125 C-69.73552734 77.86205078 -69.73552734 77.86205078 -71 77 C-82.47870997 68.80637841 -90.26183828 59.01478318 -92.6796875 44.859375 C-94.35141394 29.93615848 -92.39195946 18.35944528 -83.06640625 6.40625 C-64.26560094 -15.48655921 -22.7606033 -16.39326296 0 0 Z " fill="#002848" transform="translate(228,523)"/>
<path d="M0 0 C1.3808654 0.0001133 1.3808654 0.0001133 2.78962708 0.00022888 C4.26020821 0.00797081 4.26020821 0.00797081 5.76049805 0.01586914 C6.77444138 0.01728409 7.7883847 0.01869904 8.83305359 0.02015686 C12.06280501 0.02574211 15.29248642 0.03829194 18.5222168 0.05102539 C20.71557517 0.0560423 22.90893463 0.06060487 25.10229492 0.06469727 C30.47145932 0.07570671 35.84058306 0.0924302 41.2097168 0.11352539 C45.7240152 13.97530533 49.61350857 28.01418486 53.53796387 42.0512085 C54.72594756 46.29928353 55.92012346 50.54560481 57.11499023 54.79174805 C60.49498221 66.80926912 63.86858743 78.82798192 67.16040039 90.87002563 C68.31816007 95.10209295 69.48613385 99.33130608 70.65527344 103.5602417 C71.18538567 105.48992261 71.71009756 107.42109641 72.22900391 109.3538208 C76.07990795 125.87525575 76.07990795 125.87525575 86.3972168 138.67602539 C90.24461847 140.64247514 93.02429389 141.23941067 97.28857708 141.24774647 C98.8733397 141.25443323 98.8733397 141.25443323 100.49011773 141.26125509 C102.23726051 141.26097854 102.23726051 141.26097854 104.0196991 141.26069641 C105.87105177 141.26621144 105.87105177 141.26621144 107.7598055 141.27183789 C111.1922728 141.28096779 114.62469227 141.28557509 118.05716717 141.2882272 C121.75669608 141.2921295 125.45621113 141.30170789 129.1557312 141.31044006 C138.09341409 141.33020671 147.03109813 141.34027099 155.96879742 141.34916785 C160.17719517 141.35355047 164.38559166 141.35891735 168.59398842 141.36415672 C182.58282173 141.38116929 196.57165426 141.39566358 210.56049633 141.40290546 C214.19104704 141.40481537 217.82159775 141.4067357 221.45214844 141.40869141 C222.35450973 141.40917515 223.25687101 141.40965889 224.18657658 141.41015729 C238.8050701 141.41845804 253.42348179 141.44379558 268.04193958 141.47627208 C283.04863951 141.50933944 298.05529787 141.52735394 313.06203443 141.53054971 C321.48847705 141.53271512 329.91480037 141.54146826 338.3412075 141.56701088 C345.51740877 141.58871348 352.69346175 141.5967705 359.86969211 141.5870441 C363.53047668 141.58249806 367.19095528 141.58440287 370.85169792 141.60380554 C374.82286445 141.62467152 378.79360911 141.61445606 382.76481628 141.60127258 C383.91842453 141.61224183 385.07203277 141.62321108 386.26059884 141.63451272 C393.89550375 141.57325848 399.24582579 140.36629848 405.19598103 135.48359489 C408.74438549 131.18828005 410.69008062 127.13338694 412.26708984 121.80932617 C412.51289386 121.02697161 412.75869787 120.24461704 413.01195049 119.43855476 C413.76781814 117.00319003 414.49409183 114.56099434 415.2097168 112.11352539 C415.42891911 111.36668236 415.64812141 110.61983932 415.87396622 109.85036469 C417.4071907 104.57675735 418.85492285 99.28123919 420.29174805 93.98071289 C420.75438997 92.28935165 421.21751153 90.59812155 421.68107605 88.90701294 C422.89018339 84.49178875 424.09359308 80.07503369 425.29547119 75.65783691 C427.19948963 68.66444293 429.11276029 61.67356926 431.02474594 54.68235016 C431.49287861 52.97020753 431.96078832 51.25800393 432.42847061 49.54573822 C436.93595794 33.04384716 441.54561452 16.57179703 446.2097168 0.11352539 C452.32539287 0.01339467 458.44057439 -0.05852923 464.55688477 -0.10620117 C466.63021169 -0.12610922 468.70348403 -0.15324572 470.77661133 -0.18823242 C492.70383492 -0.54856379 512.68544749 2.17724141 529.22094727 17.99682617 C540.66216975 29.39909318 548.13329759 43.871147 548.55029297 60.24926758 C548.54982742 62.38637072 548.53344997 64.52351864 548.50268555 66.66040039 C548.4984407 67.79761536 548.49419586 68.93483032 548.48982239 70.10650635 C548.47320401 73.69243366 548.43558388 77.27777169 548.3972168 80.86352539 C548.38214819 83.31403803 548.36846362 85.7645596 548.35620117 88.21508789 C548.32335594 94.18143037 548.27332803 100.14743576 548.2097168 106.11352539 C547.38343781 106.31472488 546.55715881 106.51592438 545.70584106 106.72322083 C544.62317963 106.98970932 543.54051819 107.25619781 542.42504883 107.53076172 C541.35126984 107.79383621 540.27749084 108.05691071 539.1711731 108.32795715 C524.85833319 112.1246407 512.71640622 122.32120889 505.15405273 134.86450195 C504.04515938 136.80179795 502.99301221 138.75993632 501.9597168 140.73852539 C501.48381104 141.62314453 501.48381104 141.62314453 500.99829102 142.52563477 C494.03684276 156.58754076 493.4649562 171.76161568 492.9597168 187.11352539 C492.88312158 189.0641069 492.80500566 191.0146293 492.7253418 192.96508789 C492.53598331 197.68073829 492.36702952 202.39670172 492.2097168 207.11352539 C491.3938208 206.78304199 490.5779248 206.45255859 489.73730469 206.11206055 C482.77186242 203.35173956 475.96826688 201.0648546 468.6472168 199.48852539 C467.82415039 199.29774414 467.00108398 199.10696289 466.15307617 198.91040039 C449.60366545 195.23002736 432.85154187 193.54273245 415.9597168 192.48852539 C414.99819702 192.42660004 414.03667725 192.36467468 413.04602051 192.3008728 C406.43548223 191.87627107 399.82362343 191.48183916 393.2097168 191.11352539 C392.49895996 191.07378601 391.78820312 191.03404663 391.0559082 190.99310303 C370.87316558 189.89042441 350.64721461 190.01694384 330.4407196 189.99148178 C328.29824589 189.98856088 326.15577708 189.98439553 324.01330566 189.98013306 C283.71570422 189.8193109 283.71570422 189.8193109 245.14331055 200.40258789 C241.4023262 201.30919129 239.89083321 200.58130723 236.4597168 198.92602539 C227.19608762 194.53466019 218.0735769 192.51318617 207.9128418 191.44555664 C206.71073059 191.31921341 205.50861938 191.19287018 204.27008057 191.06269836 C188.68857854 189.58872749 173.08091616 189.69169565 157.4441452 189.78711319 C154.92274306 189.80123243 152.40137499 189.80989356 149.87994385 189.81698608 C126.00037685 189.88768172 102.15365093 190.1297418 78.3326416 191.9520874 C76.12182691 192.12020898 73.9105005 192.27975849 71.69897461 192.43823242 C33.74127903 194.95392555 33.74127903 194.95392555 -2.51269531 205.69140625 C-3.59429932 206.16070557 -4.67590332 206.63000488 -5.7902832 207.11352539 C-5.80486572 206.01588867 -5.81944824 204.91825195 -5.83447266 203.78735352 C-5.8933486 199.63454891 -5.97055686 195.4822373 -6.05273438 191.32983398 C-6.08557093 189.54769005 -6.11372456 187.76545239 -6.13671875 185.9831543 C-6.45240425 162.13882417 -10.12928857 140.58475376 -26.9152832 122.36352539 C-36.44448577 113.31160586 -48.06538753 108.64641187 -60.7902832 106.11352539 C-60.89292163 99.28585877 -60.96225963 92.45839581 -61.01000977 85.63012695 C-61.0299461 83.31429613 -61.05710517 80.99851444 -61.09204102 78.68286133 C-61.4232568 56.14070504 -59.53745702 36.64044558 -43.32226562 19.36621094 C-32.15415297 8.18313514 -16.04625137 -0.04420455 0 0 Z " fill="#002848" transform="translate(268.790283203125,394.886474609375)"/>
<path d="M0 0 C4.54331259 0.01153256 9.08639446 0.00451641 13.62969971 -0.00687504 C77.57366434 -0.14329099 77.57366434 -0.14329099 89.90087891 9.26074219 C92.06693241 12.60544903 92.16364607 15.40838193 92.19140625 19.34277344 C92.20416595 20.57084717 92.21692566 21.7989209 92.23007202 23.06420898 C92.23312911 24.40055178 92.23535717 25.73689669 92.23681641 27.07324219 C92.24324575 28.44799946 92.24997421 29.82275536 92.25698853 31.19750977 C92.26894962 34.07571588 92.27267041 36.95380205 92.27148438 39.83203125 C92.27128089 43.51769672 92.29861703 47.20259363 92.33302879 50.88807678 C92.35527595 53.72598802 92.35932266 56.56371337 92.35826492 59.40170288 C92.36062288 60.76047421 92.36945755 62.11925051 92.38492966 63.47793579 C92.40454749 65.378093 92.39623987 67.27847631 92.38671875 69.17871094 C92.38956879 70.25918701 92.39241882 71.33966309 92.39535522 72.45288086 C91.78236474 75.93371951 90.61843603 77.07804934 87.90087891 79.26074219 C84.53110104 80.94563112 80.71353126 80.40482907 77.00701904 80.40118408 C75.60810562 80.40564077 75.60810562 80.40564077 74.18093133 80.41018748 C71.03646482 80.41890211 67.89203625 80.42038506 64.74755859 80.421875 C62.50086892 80.42650125 60.25418003 80.43152564 58.00749207 80.43692017 C51.88963445 80.45006547 45.77178781 80.45649336 39.65391827 80.46093082 C35.83430266 80.46385834 32.01469008 80.46796254 28.19507599 80.472435 C17.62132264 80.48454742 7.04757192 80.49492807 -3.5261879 80.49831009 C-4.20319126 80.49852966 -4.88019462 80.49874922 -5.57771324 80.49897544 C-6.25634737 80.49919372 -6.9349815 80.499412 -7.63418031 80.49963689 C-9.00937541 80.50008036 -10.38457052 80.50052692 -11.75976562 80.50097656 C-12.7829845 80.50130871 -12.7829845 80.50130871 -13.82687446 80.50164756 C-24.87725139 80.50559459 -35.92756233 80.52304476 -46.97791377 80.54633608 C-58.32107554 80.57005168 -69.66419308 80.58225409 -81.00738406 80.58367801 C-87.37696302 80.58472745 -93.74644897 80.5906648 -100.11600494 80.60849762 C-106.10776328 80.62494564 -112.09935838 80.62714965 -118.09113121 80.61835861 C-120.29137038 80.61758646 -122.4916182 80.62195424 -124.6918354 80.63181686 C-127.69386146 80.6444852 -130.69530496 80.63868716 -133.69732666 80.62823486 C-134.56951253 80.63629127 -135.4416984 80.64434767 -136.34031415 80.65264821 C-141.33504336 80.61193314 -144.76752678 80.02855133 -149.09912109 77.26074219 C-151.11733891 74.43641378 -151.36012341 72.04056751 -151.40551758 68.61914062 C-151.42150497 67.70428894 -151.43749237 66.78943726 -151.45396423 65.84686279 C-151.45932693 64.86453674 -151.46468964 63.88221069 -151.47021484 62.87011719 C-151.47924332 61.85153625 -151.48827179 60.83295532 -151.49757385 59.7835083 C-151.51207517 57.62832578 -151.52096279 55.47309924 -151.5246582 53.31787109 C-151.53652848 50.03634444 -151.58569468 46.7567144 -151.63623047 43.47558594 C-151.64569819 41.37793883 -151.65293156 39.28028021 -151.65771484 37.18261719 C-151.67724716 36.20838806 -151.69677948 35.23415894 -151.71690369 34.23040771 C-151.66559681 26.4009871 -149.30507127 21.65527767 -143.97412109 16.01074219 C-129.25865069 7.05349933 -109.8905485 6.07070756 -93.16162109 4.13574219 C-92.49301056 4.05533691 -91.82440002 3.97493164 -91.13552856 3.89208984 C-60.91484634 0.30851847 -30.39290271 -0.0777777 0 0 Z " fill="#012948" transform="translate(414.09912109375,597.7392578125)"/>
<path d="M0 0 C1.85575918 -0.00135578 3.711518 -0.00330376 5.567276 -0.00579834 C9.43542907 -0.00871936 13.30348881 -0.00455925 17.17163086 0.00488281 C22.00710514 0.01614096 26.84235593 0.00959055 31.67782211 -0.00199413 C50.56244466 -0.04037005 69.40600818 0.13334306 88.265625 1.16796875 C88.99615522 1.20759987 89.72668545 1.24723099 90.47935295 1.28806305 C111.44830454 2.45827646 132.58444479 4.39590634 153.16015625 8.703125 C154.03913574 8.88399658 154.91811523 9.06486816 155.82373047 9.2512207 C164.1711612 11.16706462 172.62426707 14.42388852 178.09765625 21.265625 C180.82531048 26.182747 180.40348712 31.39328681 180.3984375 36.859375 C180.40272263 37.88365601 180.40700775 38.90793701 180.41142273 39.96325684 C180.41715604 42.12507387 180.41767367 44.28691019 180.41333008 46.44873047 C180.41016745 49.75391521 180.43365154 53.05820691 180.45898438 56.36328125 C180.46125721 58.46614471 180.46196094 60.56901056 180.4609375 62.671875 C180.47014725 63.65845093 180.47935699 64.64502686 180.48884583 65.66149902 C180.42853534 74.61260796 180.42853534 74.61260796 177.09765625 78.265625 C172.48436829 80.77328024 167.98305519 80.54853565 162.87426758 80.52632141 C161.47657623 80.53205973 161.47657623 80.53205973 160.05064869 80.53791398 C156.92693765 80.54823659 153.80341067 80.54425322 150.6796875 80.5402832 C148.44078399 80.54463004 146.20188198 80.54981309 143.96298218 80.55577087 C137.88047516 80.56917401 131.79803023 80.56973816 125.71551132 80.56720757 C120.64068633 80.56613893 115.56587396 80.57101842 110.49105167 80.575813 C97.83712407 80.58754718 85.18323453 80.58668045 72.52930748 80.58025619 C61.53987284 80.57508539 50.55052678 80.58634701 39.56110966 80.60535441 C28.27548667 80.62472445 16.98990447 80.6326988 5.70426083 80.62923115 C-0.63114069 80.62741564 -6.96646104 80.63008136 -13.30184937 80.64394569 C-19.25754084 80.65649129 -25.21305449 80.65461089 -31.16874313 80.64153481 C-33.35650059 80.63916248 -35.54427044 80.64192706 -37.7320137 80.65015793 C-40.71453574 80.66057134 -43.6964551 80.65256814 -46.67895508 80.6398468 C-47.54811648 80.64722109 -48.41727789 80.65459537 -49.31277752 80.66219312 C-53.99018554 80.62011531 -57.11161121 80.32260519 -60.90234375 77.265625 C-62.26066798 74.54897655 -62.05964652 72.37608741 -62.09521484 69.3347168 C-62.11127777 68.08969894 -62.1273407 66.84468109 -62.14389038 65.56193542 C-62.15537739 64.19624514 -62.16598601 62.83054722 -62.17578125 61.46484375 C-62.18110493 60.77786722 -62.1864286 60.09089069 -62.1919136 59.38309669 C-62.21863881 55.74637594 -62.23801497 52.10968944 -62.25244141 48.47290039 C-62.26577903 45.46477842 -62.29362703 42.45733511 -62.33447266 39.44946289 C-62.3838122 35.81607723 -62.40856375 32.18330697 -62.41566849 28.5496006 C-62.42237767 27.16649471 -62.43759154 25.78340238 -62.4615593 24.4004879 C-62.49323461 22.46213943 -62.49024415 20.52331906 -62.48583984 18.5847168 C-62.4939267 17.48266403 -62.50201355 16.38061127 -62.51034546 15.24516296 C-61.70566716 11.30180307 -59.9347571 9.81511808 -56.90234375 7.265625 C-49.18205104 2.95042074 -39.24073454 1.99340345 -30.58374023 1.15722656 C-29.7195494 1.07300571 -28.85535856 0.98878487 -27.96498013 0.90201187 C-18.64190442 0.05877089 -9.35447914 -0.02485676 0 0 Z " fill="#012948" transform="translate(580.90234375,597.734375)"/>
<path d="M0 0 C1.12670431 3.38011294 0.84431821 4.50457306 0.00390625 7.88671875 C-0.22490234 8.82451172 -0.45371094 9.76230469 -0.68945312 10.72851562 C-0.93630859 11.70498047 -1.18316406 12.68144531 -1.4375 13.6875 C-1.68048828 14.67556641 -1.92347656 15.66363281 -2.17382812 16.68164062 C-2.77531863 19.12298445 -3.38430006 21.56220809 -4 24 C-4.66 24 -5.32 24 -6 24 C-6.99 20.04 -7.98 16.08 -9 12 C-8.01 11.67 -7.02 11.34 -6 11 C-5.34 11.33 -4.68 11.66 -4 12 C-4 11.34 -4 10.68 -4 10 C-3.34 10 -2.68 10 -2 10 C-1.93941406 9.36191406 -1.87882813 8.72382813 -1.81640625 8.06640625 C-1.73261719 7.24011719 -1.64882813 6.41382813 -1.5625 5.5625 C-1.48128906 4.73878906 -1.40007813 3.91507812 -1.31640625 3.06640625 C-1 1 -1 1 0 0 Z " fill="#F4F6F3" transform="translate(614,358)"/>
<path d="M0 0 C0.33 0.66 0.66 1.32 1 2 C1.66 2 2.32 2 3 2 C-0.42105263 14.63157895 -0.42105263 14.63157895 -4 20 C-3.42978625 13.04339229 -1.98697306 6.68572695 0 0 Z " fill="#0C5BA6" transform="translate(641,250)"/>
<path d="M0 0 C-0.99 3.96 -1.98 7.92 -3 12 C-3.66 12 -4.32 12 -5 12 C-6.46842878 5.75917768 -6.46842878 5.75917768 -4.1875 2.0625 C-2 0 -2 0 0 0 Z " fill="#EEF4F1" transform="translate(420,371)"/>
<path d="M0 0 C1.21236328 0.02707031 1.21236328 0.02707031 2.44921875 0.0546875 C3.37154297 0.08949219 3.37154297 0.08949219 4.3125 0.125 C4.3125 1.775 4.3125 3.425 4.3125 5.125 C3.6525 5.125 2.9925 5.125 2.3125 5.125 C2.3125 4.135 2.3125 3.145 2.3125 2.125 C-0.9875 2.125 -4.2875 2.125 -7.6875 2.125 C-4.48369983 -0.01086678 -3.66810033 -0.10632175 0 0 Z " fill="#EFF1F0" transform="translate(764.6875,779.875)"/>
<path d="M0 0 C3 3 3 3 3.3984375 4.97265625 C3.37585762 6.98602922 3.19089807 8.99557028 3 11 C2.01 11.66 1.02 12.32 0 13 C0 8.71 0 4.42 0 0 Z " fill="#173956" transform="translate(848,693)"/>
<path d="M0 0 C0.66 0.33 1.32 0.66 2 1 C2 5.29 2 9.58 2 14 C1.67 14 1.34 14 1 14 C0.67 12.35 0.34 10.7 0 9 C-0.33 9 -0.66 9 -1 9 C-1.09765625 2.84765625 -1.09765625 2.84765625 -1 1 C-0.67 0.67 -0.34 0.34 0 0 Z " fill="#0D3351" transform="translate(172,647)"/>
<path d="M0 0 C0.96661363 3.12180401 0.98988909 5.52083795 0.5625 8.75 C0.40974609 9.94882812 0.40974609 9.94882812 0.25390625 11.171875 C0.12822266 12.07679688 0.12822266 12.07679688 0 13 C-0.66 12.67 -1.32 12.34 -2 12 C-1.85904936 10.3745692 -1.71207913 8.74965949 -1.5625 7.125 C-1.48128906 6.22007812 -1.40007813 5.31515625 -1.31640625 4.3828125 C-1 2 -1 2 0 0 Z " fill="#0B57A5" transform="translate(620,338)"/>
<path d="M0 0 C6.125 -0.4375 6.125 -0.4375 9 1 C9 1.66 9 2.32 9 3 C5.37 3 1.74 3 -2 3 C-1.34 2.01 -0.68 1.02 0 0 Z " fill="#133653" transform="translate(328,601)"/>
<path d="M0 0 C3.39192363 0.59283621 5.2107757 1.76743189 7.75 4.0625 C8.67039063 4.88427734 8.67039063 4.88427734 9.609375 5.72265625 C10.29773438 6.35494141 10.29773438 6.35494141 11 7 C10.34 7.66 9.68 8.32 9 9 C7.49704815 7.69088122 5.99770689 6.37761608 4.5 5.0625 C3.6646875 4.33160156 2.829375 3.60070312 1.96875 2.84765625 C1.3190625 2.23792969 0.669375 1.62820313 0 1 C0 0.67 0 0.34 0 0 Z " fill="#E5EAEB" transform="translate(225,521)"/>
<path d="M0 0 C0.33 0 0.66 0 1 0 C1 1.65 1 3.3 1 5 C1.66 5.33 2.32 5.66 3 6 C2.01 7.485 2.01 7.485 1 9 C0.01 9 -0.98 9 -2 9 C-1.34 6.03 -0.68 3.06 0 0 Z " fill="#E7EEEE" transform="translate(717,340)"/>
<path d="M0 0 C0.99 0.33 1.98 0.66 3 1 C0.03 3.475 0.03 3.475 -3 6 C-3.66 5.67 -4.32 5.34 -5 5 C-3.35 3.35 -1.7 1.7 0 0 Z M-7 6 C-5 7 -5 7 -5 7 Z " fill="#E8EAEA" transform="translate(840,768)"/>
<path d="M0 0 C1.32 0.99 2.64 1.98 4 3 C3.67 4.98 3.34 6.96 3 9 C2.34 9 1.68 9 1 9 C0.67 6.03 0.34 3.06 0 0 Z " fill="#0F3352" transform="translate(757,621)"/>
<path d="M0 0 C3.16115776 1.36983503 3.9927092 1.9890638 6 5 C5.625 7.1875 5.625 7.1875 5 9 C3.19933758 6.0534615 1.49836105 3.11198065 0 0 Z " fill="#DEE3E6" transform="translate(754,613)"/>
</svg>
